<svg width="473" height="276" viewBox="0 0 473 276" fill="none" xmlns="http://www.w3.org/2000/svg">
<path d="M33.5 231.79C28.51 230.09 23.98 228.36 19.9 226.6C15.82 224.84 12.3 222.72 9.36 220.22C6.41 217.73 4.12 214.75 2.47 211.29C0.83 207.83 0 203.61 0 198.62C0 188.99 3.71 181.28 11.14 175.49C18.56 169.71 28.96 166.82 42.34 166.82C47.21 166.82 51.75 167.16 55.94 167.84C60.13 168.52 63.73 169.57 66.74 170.99C69.74 172.41 72.1 174.22 73.8 176.43C75.5 178.64 76.35 181.22 76.35 184.17C76.35 187.12 75.67 189.64 74.31 191.74C72.95 193.84 71.31 195.62 69.38 197.1C66.89 195.51 63.54 194.12 59.35 192.93C55.15 191.74 50.56 191.14 45.58 191.14C40.6 191.14 36.74 191.85 34.36 193.27C31.98 194.69 30.79 196.47 30.79 198.63C30.79 200.33 31.53 201.72 33 202.8C34.47 203.88 36.68 204.87 39.63 205.78L48.64 208.67C59.29 212.07 67.48 216.41 73.21 221.68C78.93 226.95 81.8 234.12 81.8 243.19C81.8 252.83 78 260.62 70.41 266.57C62.81 272.52 51.65 275.5 36.91 275.5C31.69 275.5 26.85 275.08 22.37 274.22C17.89 273.37 13.98 272.12 10.64 270.48C7.3 268.84 4.69 266.8 2.82 264.36C0.95 261.92 0.01 259.12 0.01 255.94C0.01 252.76 0.97 249.85 2.9 247.52C4.83 245.2 6.92 243.41 9.19 242.16C12.36 244.65 16.25 246.81 20.84 248.62C25.43 250.43 30.45 251.34 35.89 251.34C41.33 251.34 45.35 250.49 47.62 248.79C49.89 247.09 51.02 245.11 51.02 242.84C51.02 240.57 50.11 238.84 48.3 237.65C46.49 236.46 43.93 235.3 40.65 234.16L33.51 231.78L33.5 231.79Z" fill="#00509D"/>
<path d="M87.6802 193.53C86.8902 192.28 86.1502 190.58 85.4702 188.43C84.7902 186.28 84.4502 184.01 84.4502 181.63C84.4502 177.21 85.4402 174.04 87.4302 172.11C89.4102 170.18 91.9902 169.22 95.1702 169.22H169.31C170.1 170.47 170.84 172.17 171.52 174.32C172.2 176.47 172.54 178.74 172.54 181.12C172.54 185.54 171.55 188.72 169.56 190.64C167.58 192.57 165 193.53 161.82 193.53H142.95V272.09C141.7 272.43 139.75 272.77 137.08 273.11C134.42 273.45 131.78 273.62 129.17 273.62C126.56 273.62 124.27 273.42 122.28 273.02C120.3 272.62 118.62 271.91 117.26 270.89C115.9 269.87 114.88 268.45 114.2 266.64C113.52 264.83 113.18 262.45 113.18 259.5V193.53H87.6702H87.6802Z" fill="#00509D"/>
<path d="M172.91 221.08C172.91 212.24 174.3 204.42 177.08 197.61C179.86 190.81 183.65 185.11 188.47 180.52C193.29 175.93 198.95 172.44 205.47 170.06C211.99 167.68 219.04 166.49 226.64 166.49C234.24 166.49 241.29 167.68 247.81 170.06C254.33 172.44 260.02 175.93 264.9 180.52C269.77 185.11 273.6 190.81 276.38 197.61C279.16 204.41 280.55 212.23 280.55 221.08C280.55 229.93 279.19 237.77 276.47 244.63C273.75 251.49 269.98 257.21 265.16 261.8C260.34 266.39 254.64 269.88 248.07 272.26C241.49 274.64 234.35 275.83 226.65 275.83C218.95 275.83 211.8 274.61 205.23 272.17C198.65 269.73 192.99 266.19 188.23 261.54C183.47 256.89 179.73 251.17 177.01 244.37C174.29 237.57 172.93 229.81 172.93 221.08H172.91ZM203.52 221.08C203.52 231.4 205.62 239.1 209.81 244.21C214 249.31 219.61 251.86 226.64 251.86C233.67 251.86 239.45 249.31 243.64 244.21C247.83 239.11 249.93 231.4 249.93 221.08C249.93 210.76 247.86 203.23 243.72 198.12C239.58 193.02 233.94 190.47 226.8 190.47C219.66 190.47 214.13 192.99 209.88 198.04C205.63 203.09 203.5 210.77 203.5 221.08H203.52Z" fill="#00509D"/>
<path d="M320.83 239.44V272.09C319.58 272.43 317.63 272.77 314.96 273.11C312.3 273.45 309.66 273.62 307.05 273.62C304.44 273.62 302.15 273.42 300.16 273.02C298.18 272.62 296.53 271.91 295.23 270.89C293.93 269.87 292.93 268.45 292.25 266.64C291.57 264.83 291.23 262.45 291.23 259.5V179.41C291.23 177.03 291.88 175.19 293.19 173.88C294.49 172.58 296.28 171.53 298.55 170.73C302.4 169.37 306.88 168.38 311.98 167.75C317.08 167.13 322.52 166.81 328.3 166.81C343.94 166.81 355.73 170.1 363.67 176.67C371.6 183.25 375.57 192.14 375.57 203.37C375.57 210.4 373.76 216.41 370.13 221.39C366.5 226.38 362.19 230.23 357.21 232.95C361.29 238.51 365.31 243.72 369.28 248.59C373.25 253.47 376.36 257.89 378.63 261.85C377.5 265.82 375.43 268.85 372.42 270.95C369.42 273.05 366.04 274.1 362.3 274.1C359.81 274.1 357.65 273.82 355.84 273.25C354.03 272.68 352.44 271.89 351.08 270.87C349.72 269.85 348.47 268.6 347.34 267.13C346.21 265.66 345.13 264.07 344.11 262.37L329.83 239.41H320.82L320.83 239.44ZM331.54 216.83C335.85 216.83 339.25 215.72 341.74 213.51C344.23 211.3 345.48 208.04 345.48 203.73C345.48 199.42 344.09 196.16 341.31 193.95C338.53 191.74 334.14 190.63 328.13 190.63C326.43 190.63 325.07 190.69 324.05 190.8C323.03 190.91 321.9 191.08 320.65 191.31V216.82H331.53L331.54 216.83Z" fill="#00509D"/>
<path d="M442.41 272.09C441.16 272.43 439.24 272.77 436.63 273.11C434.02 273.45 431.47 273.62 428.98 273.62C423.76 273.62 419.85 272.74 417.25 270.98C414.64 269.22 413.34 265.51 413.34 259.84V236.88C410.51 232.69 407.44 228.04 404.16 222.94C400.87 217.84 397.64 212.63 394.47 207.3C391.29 201.97 388.35 196.73 385.63 191.57C382.91 186.41 380.7 181.68 379 177.37C380.47 175.33 382.49 173.46 385.04 171.76C387.59 170.06 390.74 169.21 394.48 169.21C398.9 169.21 402.5 170.12 405.28 171.93C408.06 173.74 410.69 177.15 413.19 182.13L427.3 210.53H428.32C429.91 207.02 431.3 203.81 432.49 200.92C433.68 198.03 434.84 195.14 435.98 192.25C437.11 189.36 438.3 186.36 439.55 183.24C440.8 180.12 442.21 176.52 443.8 172.44C445.84 171.42 448.11 170.63 450.6 170.06C453.09 169.49 455.47 169.21 457.74 169.21C461.71 169.21 465.08 170.26 467.86 172.36C470.64 174.46 472.03 177.6 472.03 181.8C472.03 183.16 471.75 184.8 471.18 186.73C470.61 188.66 469.31 191.58 467.27 195.49C465.23 199.4 462.25 204.7 458.34 211.39C454.43 218.08 449.13 226.81 442.44 237.58V272.1L442.41 272.09Z" fill="#00509D"/>
<path d="M156.42 70.91C154.39 65.63 151.04 61.1 146.37 57.32C138.09 50.63 126.14 47.29 110.49 47.29C105.5 47.29 100.54 47.6 95.6104 48.22C90.6804 48.84 86.2804 49.83 82.4304 51.2C80.1604 51.99 78.3804 53.04 77.0704 54.34C75.7704 55.64 75.1104 57.49 75.1104 59.87V139.96C75.1104 142.91 75.4503 145.29 76.1303 147.1C76.8103 148.91 77.8304 150.33 79.1904 151.35C80.5504 152.37 82.2204 153.08 84.2104 153.48C86.1903 153.87 88.4903 154.07 91.0903 154.07C93.6903 154.07 96.3304 153.9 99.0004 153.56C101.66 153.22 103.62 152.88 104.87 152.54V121.25H116.94C121.89 121.25 126.42 120.8 130.53 119.9C131.69 119.65 132.59 118.72 132.8 117.55C134.2 109.71 139.47 87.19 155.53 74.24C156.52 73.44 156.87 72.09 156.41 70.9L156.42 70.91ZM124.69 94.64C122.14 96.85 118.48 97.96 113.72 97.96H104.71V71.6C105.96 71.38 107.18 71.24 108.37 71.18C109.56 71.12 111.06 71.09 112.87 71.09C117.97 71.09 121.85 72.25 124.52 74.58C127.18 76.91 128.52 80.22 128.52 84.53C128.52 89.06 127.24 92.44 124.69 94.65V94.64Z" fill="#00509D"/>
<path d="M396.87 61.4003C396.87 63.8903 396.62 67.4403 396.11 72.0203C395.6 76.6103 394.92 81.7403 394.07 87.4103C393.22 93.0803 392.23 99.0303 391.09 105.26C389.96 111.49 388.76 117.45 387.52 123.11C386.27 128.78 384.99 133.91 383.69 138.5C382.39 143.09 381.17 146.63 380.04 149.13C378.34 150.72 375.56 152.02 371.71 153.04C367.86 154.06 363.89 154.57 359.81 154.57C354.48 154.57 349.97 153.86 346.29 152.45C342.61 151.03 340.37 149.02 339.57 146.41C338.09 141.88 336.51 136.49 334.81 130.26C333.11 124.03 331.29 117.17 329.37 109.68C327.78 117.05 326.14 124.25 324.44 131.28C322.74 138.31 321.21 144.26 319.85 149.13C318.15 150.72 315.6 152.02 312.2 153.04C308.8 154.06 305.06 154.57 300.98 154.57C295.88 154.57 291.26 153.86 287.12 152.45C282.98 151.03 280.29 149.02 279.04 146.41C278.02 144.37 276.92 141.34 275.72 137.31C274.53 133.29 273.31 128.7 272.07 123.54C270.82 118.38 269.55 112.8 268.24 106.79C267.78 104.68 267.34 102.56 266.91 100.45C266.7 99.4203 267.2 98.3803 268.13 97.8903C272.6 95.5003 278.94 91.1503 284.04 83.6303C286.18 80.4803 287.7 77.3403 288.8 74.4103C289.65 72.1403 292.97 72.4903 293.35 74.8903C294.27 80.8203 295.09 86.0703 295.8 90.6503C296.99 98.3603 297.95 104.68 298.69 109.61C299.43 114.54 299.96 118.36 300.3 121.09C300.64 123.81 300.98 125.96 301.32 127.55H302.17C303.19 123.02 304.15 118.82 305.06 114.97C305.97 111.12 306.9 107.24 307.87 103.32C308.83 99.4103 309.83 95.2203 310.84 90.7403C311.86 86.2603 312.94 81.1303 314.07 75.3503C315.32 74.7803 317.27 74.1303 319.94 73.3903C322.6 72.6503 325.3 72.2803 328.02 72.2803C332.78 72.2803 336.75 72.9903 339.92 74.4103C343.09 75.8303 345.02 77.8903 345.7 80.6203C346.95 85.2703 348.11 89.6003 349.19 93.6303C350.27 97.6503 351.32 101.51 352.34 105.19C353.36 108.87 354.35 112.53 355.31 116.16C356.27 119.79 357.21 123.59 358.12 127.55H358.97C359.99 120.64 360.9 114.03 361.69 107.74C362.48 101.45 363.22 95.2703 363.9 89.2103C364.58 83.1503 365.26 77.1403 365.94 71.1903C366.62 65.2403 367.3 59.2003 367.98 53.0803C372.17 50.7003 376.65 49.5103 381.41 49.5103C385.6 49.5103 389.23 50.4203 392.29 52.2303C395.35 54.0403 396.88 57.1003 396.88 61.4103L396.87 61.4003Z" fill="#00509D"/>
<path d="M231.96 134.12C227.72 144.41 218.91 158.94 205.5 153.88C201.02 152.19 198.86 148.79 197.36 144.85C198.01 145.24 198.72 145.59 199.5 145.88C212.91 150.94 221.72 136.41 225.96 126.12C233 109.91 233.39 84.2901 223.48 67.0801C239.33 83.2601 240.2 115.15 231.96 134.12Z" fill="#8F2D56"/>
<path d="M217.31 32.9702C213.87 41.4702 203.73 51.5002 194.59 43.9702C192.33 42.1102 190.79 39.6602 189.83 36.8902C198.63 42.6002 208.02 33.0902 211.31 24.9702C214.05 18.5202 215.6 9.04018 213 1.68018C213.6 2.07018 214.2 2.54018 214.79 3.09018C222.51 10.2302 220.99 24.3202 217.31 32.9702Z" fill="#8F2D56"/>
<path d="M259.96 42.2303C256.26 51.0603 245.96 63.9403 234.73 61.1703C229.85 59.9603 227.42 56.5403 226.54 52.4103C227.21 52.7203 227.94 52.9703 228.73 53.1703C239.96 55.9403 250.26 43.0603 253.96 34.2303C255.78 29.8603 256.73 24.0703 255.7 19.2803C263.67 22.7103 263.12 34.6303 259.96 42.2303Z" fill="#8F2D56"/>
<path d="M175.21 46.9901C170.77 55.7701 161.83 59.0101 155.25 50.2801C154.18 48.8601 153.34 47.3001 152.69 45.6601C158.67 49.7801 165.51 46.3101 169.21 38.9901C172.45 32.5701 173.1 23.1401 170.22 15.8901C171.25 16.6301 172.19 17.5301 173.02 18.5001C179.26 25.7301 179.34 38.8001 175.21 46.9901Z" fill="#8F2D56"/>
<path d="M278.851 78.9604C276.091 84.0904 271.081 89.4204 265.281 92.1204C262.821 93.2604 260.211 93.9304 257.571 93.9104C250.911 93.8604 247.631 90.0304 247.011 85.1304C248.301 85.6204 249.821 85.9004 251.571 85.9104C254.211 85.9304 256.821 85.2604 259.281 84.1204C265.081 81.4204 270.091 76.0904 272.851 70.9604C274.791 67.3404 275.771 63.0704 275.321 59.4004C282.761 62.0104 282.711 71.7604 278.851 78.9604Z" fill="#8F2D56"/>
<path d="M223.48 67.0802C220.43 63.9602 216.82 61.4302 212.61 59.6802C193.07 51.5802 172.41 63.8502 158.56 80.0102C152.78 86.7402 148.19 94.1502 145.36 101.04C143.63 105.25 142.15 110.58 142.03 115.67C141.97 117.92 142.18 120.13 142.76 122.17C143.95 126.4 146.72 129.9 151.92 131.58C164.31 135.59 172.97 119.27 186.08 125.37C186.74 125.68 187.36 126.02 187.92 126.4C194.18 130.52 194.89 138.4 197.35 144.84C198 145.23 198.71 145.58 199.49 145.87C212.9 150.93 221.71 136.4 225.95 126.11C232.99 109.9 233.38 84.2802 223.47 67.0702L223.48 67.0802ZM206.44 99.5702C204.04 109.4 201.83 114.25 191.2 110.71C191.21 110.69 191.22 110.66 191.23 110.63C187.34 109.01 185.66 106.16 185.48 102.8C184.98 93.6902 195.52 80.8802 202.56 79.0902C203.72 78.7802 204.79 78.7902 205.7 79.1602C211.18 81.4102 207.33 95.9402 206.44 99.5702Z" fill="#D81159"/>
<path d="M211.31 24.9703C208.02 33.0903 198.63 42.6003 189.83 36.8903C187.04 28.8703 189.12 18.1903 192.61 11.6303C196.55 4.25028 205.08 -3.48972 213 1.68028C215.6 9.04028 214.05 18.5203 211.31 24.9703Z" fill="#D81159"/>
<path d="M253.96 34.2304C250.26 43.0604 239.96 55.9404 228.73 53.1704C227.94 52.9704 227.21 52.7204 226.54 52.4104C225.45 47.3004 226.73 41.1004 228.63 36.6804C232.32 28.1004 240.93 17.9904 251.18 18.3404C252.92 18.4004 254.42 18.7304 255.7 19.2804C256.73 24.0704 255.78 29.8604 253.96 34.2304Z" fill="#D81159"/>
<path d="M169.21 38.9902C165.51 46.3102 158.67 49.7802 152.69 45.6602C151.69 43.1502 151.14 40.4602 150.92 37.7802C150.54 33.0502 151.09 27.7902 153.1 23.3802C154.94 19.3202 158.01 15.9802 162.71 14.4202C165.49 13.5002 168.05 14.3202 170.22 15.8902C173.1 23.1402 172.45 32.5702 169.21 38.9902Z" fill="#D81159"/>
<path d="M272.85 70.9603C270.09 76.0903 265.08 81.4203 259.28 84.1203C256.82 85.2603 254.21 85.9303 251.57 85.9103C249.82 85.9103 248.3 85.6203 247.01 85.1303C246.64 82.3003 247.16 79.1103 248.42 76.0803C250.8 70.8703 255.11 65.4503 260.39 62.0903C263.48 60.1303 266.89 58.8703 270.46 58.7503C272.35 58.6903 273.96 58.9303 275.32 59.4003C275.77 63.0703 274.79 67.3403 272.85 70.9603Z" fill="#D81159"/>
</svg>
